<svg width="148" height="149" viewBox="0 0 148 149" fill="none" xmlns="http://www.w3.org/2000/svg">
<path d="M147.776 84.235V67.275H141.721C141.69 49.5519 134.633 32.5641 122.098 20.0351C109.563 7.50615 92.5713 0.458042 74.8481 0.435624C66.0465 0.422248 57.3286 2.1443 49.1931 5.50327C41.0576 8.86224 33.6642 13.7922 27.4358 20.0112C21.2074 26.2301 16.2662 33.6161 12.8949 41.7464C9.52356 49.8768 7.78827 58.5921 7.78828 67.3937V87.2199H0.224121V104.18H53.699L62.9761 95.3777V123.192H59.4824V140.152H62.9761V148.632H79.9361V140.152H83.6334V123.192H79.9361V84.1841L147.776 84.235ZM24.7483 67.3937C24.5234 54.1244 29.5789 41.3092 38.8027 31.7674C48.0265 22.2255 60.663 16.7386 73.9323 16.5137C87.2016 16.2888 100.017 21.3443 109.559 30.5681C119.1 39.7919 124.587 52.4284 124.812 65.6977H68.0641L63.1457 70.2599L46.915 85.5239H24.7483V67.3937Z" fill="white"/>
</svg>
