<svg width="26" height="26" viewBox="0 0 26 26" fill="none" xmlns="http://www.w3.org/2000/svg">
<path d="M13.0002 6.59072C9.45328 6.59072 6.59078 9.45322 6.59078 13.0001C6.59078 16.547 9.45328 19.4095 13.0002 19.4095C16.547 19.4095 19.4095 16.547 19.4095 13.0001C19.4095 9.45322 16.547 6.59072 13.0002 6.59072ZM13.0002 17.1657C10.7064 17.1657 8.83453 15.2938 8.83453 13.0001C8.83453 10.7063 10.7064 8.83447 13.0002 8.83447C15.2939 8.83447 17.1658 10.7063 17.1658 13.0001C17.1658 15.2938 15.2939 17.1657 13.0002 17.1657ZM19.672 4.83447C18.8439 4.83447 18.1752 5.50322 18.1752 6.33135C18.1752 7.15947 18.8439 7.82822 19.672 7.82822C20.5002 7.82822 21.1689 7.1626 21.1689 6.33135C21.1692 6.13471 21.1306 5.93995 21.0555 5.75823C20.9803 5.57651 20.8701 5.41139 20.731 5.27235C20.592 5.1333 20.4269 5.02305 20.2452 4.94791C20.0634 4.87278 19.8687 4.83423 19.672 4.83447ZM25.4939 13.0001C25.4939 11.2751 25.5095 9.56572 25.4127 7.84385C25.3158 5.84385 24.8595 4.06885 23.397 2.60635C21.9314 1.14072 20.1595 0.687599 18.1595 0.590724C16.4345 0.493849 14.7252 0.509474 13.0033 0.509474C11.2783 0.509474 9.5689 0.493849 7.84703 0.590724C5.84703 0.687599 4.07203 1.14385 2.60952 2.60635C1.1439 4.07197 0.690773 5.84385 0.593898 7.84385C0.497023 9.56885 0.512648 11.2782 0.512648 13.0001C0.512648 14.722 0.497023 16.4345 0.593898 18.1563C0.690773 20.1563 1.14702 21.9313 2.60952 23.3938C4.07515 24.8595 5.84703 25.3126 7.84703 25.4095C9.57203 25.5063 11.2814 25.4907 13.0033 25.4907C14.7283 25.4907 16.4377 25.5063 18.1595 25.4095C20.1595 25.3126 21.9345 24.8563 23.397 23.3938C24.8627 21.9282 25.3158 20.1563 25.4127 18.1563C25.5127 16.4345 25.4939 14.7251 25.4939 13.0001ZM22.7439 20.3688C22.5158 20.9376 22.2408 21.3626 21.8002 21.8001C21.3595 22.2407 20.9377 22.5157 20.3689 22.7438C18.7252 23.397 14.822 23.2501 13.0002 23.2501C11.1783 23.2501 7.27203 23.397 5.62828 22.747C5.05953 22.5188 4.63453 22.2438 4.19703 21.8032C3.7564 21.3626 3.4814 20.9407 3.25327 20.372C2.60327 18.7251 2.75015 14.822 2.75015 13.0001C2.75015 11.1782 2.60327 7.27197 3.25327 5.62822C3.4814 5.05947 3.7564 4.63447 4.19703 4.19697C4.63765 3.75947 5.05953 3.48135 5.62828 3.25322C7.27203 2.60322 11.1783 2.7501 13.0002 2.7501C14.822 2.7501 18.7283 2.60322 20.372 3.25322C20.9408 3.48135 21.3658 3.75635 21.8033 4.19697C22.2439 4.6376 22.5189 5.05947 22.747 5.62822C23.397 7.27197 23.2502 11.1782 23.2502 13.0001C23.2502 14.822 23.397 18.7251 22.7439 20.3688Z" fill="black"/>
</svg>
