<svg width="28" height="28" viewBox="0 0 28 28" fill="none" xmlns="http://www.w3.org/2000/svg">
<path fill-rule="evenodd" clip-rule="evenodd" d="M10.5723 9.95875H15.5243V12.4254C16.2377 11.0067 18.067 9.73208 20.815 9.73208C26.083 9.73208 27.3337 12.5561 27.3337 17.7374V27.3334H22.0003V18.9174C22.0003 15.9667 21.287 14.3027 19.471 14.3027C16.9523 14.3027 15.9057 16.0961 15.9057 18.9161V27.3334H10.5723V9.95875ZM1.42699 27.1067H6.76033V9.73208H1.42699V27.1067ZM7.52433 4.06675C7.52452 4.51378 7.43587 4.95639 7.26351 5.36886C7.09115 5.78133 6.83853 6.15543 6.52033 6.46942C5.87553 7.11025 5.00274 7.46895 4.09366 7.46675C3.18618 7.46614 2.31541 7.10835 1.66966 6.47075C1.35261 6.1557 1.10084 5.78118 0.928784 5.36866C0.756727 4.95613 0.667764 4.51371 0.666992 4.06675C0.666992 3.16408 1.02699 2.30008 1.67099 1.66275C2.31617 1.02429 3.18731 0.666349 4.09499 0.666748C5.00433 0.666748 5.87633 1.02542 6.52033 1.66275C7.16299 2.30008 7.52433 3.16408 7.52433 4.06675Z" fill="black"/>
</svg>
