<svg width="557" height="197" viewBox="0 0 557 197" fill="none" xmlns="http://www.w3.org/2000/svg">
<path d="M73.5641 85.4624H35.3734V41.7529H0V162.771H35.3734V116.386H73.5641V162.771H109.042V41.7529H73.5641V85.4624Z" fill="white"/>
<path d="M409.35 66.4316C378.464 66.4316 355.925 87.4438 355.925 116.088C355.925 144.633 378.672 165.942 409.35 165.942C433.976 165.942 453.906 152.661 460.793 131.352H427.089C423.854 136.803 417.176 140.074 409.35 140.074C398.707 140.074 391.507 134.523 389.316 123.819H462.254C462.671 120.944 462.984 118.169 462.984 115.295C462.984 87.8403 441.071 66.4316 409.35 66.4316ZM389.942 105.978C392.655 96.6615 399.542 91.6066 409.454 91.6066C419.68 91.6066 426.776 96.6615 429.698 105.978H389.942Z" fill="white"/>
<path d="M472.375 35.6075C472.375 41.257 468.514 44.9242 462.88 44.9242C457.245 44.9242 453.384 41.257 453.384 35.6075V0.421875H436.271V35.9048C436.271 50.1772 447.332 59.7913 462.88 59.7913C478.427 59.7913 489.488 50.1772 489.488 35.9048V0.421875H472.375V35.6075Z" fill="white"/>
<path d="M532.583 0.421875H516.201L492.306 58.3046H510.253L513.592 48.8888H535.192L538.531 58.3046H557L532.583 0.421875ZM517.662 36.4004L524.34 18.4607L531.122 36.4004H517.662Z" fill="white"/>
<path d="M328.899 77.1362C318.464 67.2247 304.378 62.0708 288.204 62.0708H288.1C287.056 62.0708 286.013 62.0708 284.969 62.1699C284.865 62.1699 284.656 62.1699 284.552 62.1699H284.343C283.509 62.269 282.674 62.269 281.839 62.3681C281.63 62.3681 281.526 62.3681 281.317 62.4673H281.004C280.274 62.5664 279.543 62.6655 278.813 62.7646L277.978 62.8637C277.248 62.9628 276.517 63.161 275.891 63.2602L275.161 63.4584C274.43 63.6566 273.7 63.7557 272.97 63.954L272.343 64.1522C271.613 64.3504 270.883 64.5486 270.152 64.846L269.63 65.0442C268.796 65.3415 267.961 65.6389 267.126 65.9363H267.022C264.413 66.9274 261.909 68.1167 259.509 69.5043H237.596V87.4441C231.962 93.5891 226.744 100.23 221.944 106.474L221.736 106.672C207.649 124.909 195.44 140.668 177.075 140.668C162.05 140.668 151.198 130.361 151.198 116.088C151.198 102.509 162.78 91.5077 177.075 91.5077C187.719 91.5077 196.693 96.5626 207.336 108.357C207.336 108.357 213.075 102.014 214.014 100.725C217.562 96.1661 227.162 85.0653 227.162 85.0653C211.927 69.5044 195.545 61.9717 176.971 61.9717C145.563 61.9717 119.998 86.2547 119.998 116.088C119.998 146.913 144.519 170.204 177.075 170.204C195.753 170.204 211.718 162.87 227.37 147.21L229.666 144.831C236.031 138.091 241.666 130.856 247.092 123.918L248.344 122.332C249.387 120.945 250.535 119.557 251.579 118.269L252.622 116.881C263.683 102.906 274.222 91.6068 288.308 91.6068C296.134 91.6068 302.604 93.8864 306.986 98.0492C311.578 102.41 314.082 108.754 314.082 116.088C314.082 129.568 302.5 140.668 288.204 140.668H287.682C287.369 140.668 287.056 140.668 286.639 140.668H286.326C286.222 140.668 286.013 140.668 285.908 140.668C285.804 140.668 285.7 140.668 285.491 140.668C285.178 140.668 284.969 140.668 284.656 140.569L283.926 140.47C283.717 140.47 283.613 140.47 283.404 140.47C283.196 140.47 282.882 140.371 282.674 140.371L281.943 140.272C281.735 140.272 281.526 140.173 281.317 140.173C281.109 140.074 280.796 140.074 280.587 139.975L279.961 139.776C279.752 139.776 279.543 139.677 279.335 139.578C279.126 139.479 278.813 139.38 278.604 139.281L278.083 139.083C277.874 138.983 277.665 138.983 277.456 138.884C277.143 138.785 276.935 138.686 276.622 138.488L276.204 138.29C275.996 138.191 275.787 138.091 275.578 137.992C275.265 137.893 275.057 137.695 274.743 137.596L274.326 137.398C274.117 137.299 273.909 137.199 273.596 137.001C273.283 136.803 272.97 136.605 272.552 136.406L272.448 136.307C272.239 136.109 271.926 136.01 271.717 135.812C271.404 135.614 270.987 135.316 270.674 135.019C270.361 134.821 270.152 134.622 269.839 134.424C269.526 134.127 269.109 133.929 268.796 133.631L268.691 133.532C268.483 133.334 268.17 133.136 267.961 132.937C267.648 132.64 267.231 132.343 266.918 132.045C266.604 131.748 266.291 131.55 266.083 131.253C265.77 130.955 265.352 130.559 265.039 130.261C264.726 129.964 264.518 129.667 264.204 129.468C263.787 129.072 263.474 128.775 263.057 128.378C262.744 128.081 262.535 127.784 262.222 127.486C261.805 127.09 261.491 126.693 261.074 126.297C260.761 125.999 260.552 125.702 260.239 125.405C259.822 125.008 259.405 124.513 259.092 124.116C258.779 123.819 258.57 123.522 258.257 123.125C257.839 122.63 257.422 122.134 257.005 121.638L256.9 121.539C256.379 120.945 256.379 120.846 256.065 120.548C256.065 120.548 251.474 126.297 250.952 126.991C247.092 131.946 242.605 136.902 238.118 142.155L236.24 144.237C236.448 144.435 235.718 143.84 236.031 144.237L236.24 144.534C236.657 145.029 237.179 145.525 237.596 146.021V196.569H270.361V168.024H270.465C270.883 168.123 271.3 168.222 271.822 168.42C272.03 168.519 272.239 168.52 272.448 168.619C272.865 168.718 273.283 168.817 273.804 168.916L274.43 169.015C274.848 169.114 275.265 169.213 275.683 169.312L276.413 169.412C276.83 169.511 277.143 169.511 277.561 169.61H277.769C277.978 169.61 278.187 169.709 278.396 169.709C278.709 169.709 279.022 169.808 279.335 169.808H279.648C279.961 169.808 280.169 169.907 280.483 169.907C280.691 169.907 281.004 169.907 281.213 170.006H281.63C281.943 170.006 282.256 170.105 282.569 170.105C282.778 170.105 282.882 170.105 283.091 170.105H283.3C284.552 170.204 285.7 170.204 286.743 170.204C287.369 170.204 288.1 170.204 288.622 170.204C319.925 170.105 345.386 145.822 345.386 116.088C345.073 100.824 339.334 87.0476 328.899 77.1362Z" fill="white"/>
</svg>
