<svg width="158" height="56" viewBox="0 0 158 56" fill="none" xmlns="http://www.w3.org/2000/svg">
<path d="M20.8673 24.1228H10.0341V11.7241H0V46.0525H10.0341V32.8947H20.8673V46.0525H30.931V11.7241H20.8673V24.1228Z" fill="black"/>
<path d="M116.117 18.7244C107.355 18.7244 100.962 24.6847 100.962 32.81C100.962 40.9071 107.415 46.9518 116.117 46.9518C123.102 46.9518 128.755 43.1844 130.709 37.1397H121.149C120.231 38.686 118.337 39.6138 116.117 39.6138C113.098 39.6138 111.055 38.0393 110.434 35.0029H131.123C131.242 34.1876 131.331 33.4004 131.331 32.585C131.331 24.7972 125.115 18.7244 116.117 18.7244ZM110.611 29.9422C111.381 27.2994 113.334 25.8656 116.146 25.8656C119.047 25.8656 121.06 27.2994 121.888 29.9422H110.611Z" fill="black"/>
<path d="M133.994 9.98082C133.994 11.5834 132.899 12.6236 131.301 12.6236C129.702 12.6236 128.607 11.5834 128.607 9.98082V0H123.753V10.0652C123.753 14.1137 126.89 16.8409 131.301 16.8409C135.711 16.8409 138.848 14.1137 138.848 10.0652V0H133.994V9.98082Z" fill="black"/>
<path d="M151.075 0H146.428L139.649 16.4191H144.74L145.688 13.7482H151.815L152.762 16.4191H158.001L151.075 0ZM146.842 10.2057L148.736 5.11692L150.66 10.2057H146.842Z" fill="black"/>
<path d="M93.2964 21.7611C90.3365 18.9496 86.3406 17.4876 81.7527 17.4876H81.7232C81.4272 17.4876 81.1312 17.4876 80.8352 17.5157C80.8056 17.5157 80.7464 17.5157 80.7168 17.5157H80.6576C80.4208 17.5438 80.184 17.5438 79.9472 17.5719C79.888 17.5719 79.8584 17.5719 79.7992 17.6H79.7104C79.5032 17.6282 79.296 17.6563 79.0888 17.6844L78.852 17.7125C78.6448 17.7406 78.4377 17.7968 78.2601 17.825L78.0529 17.8812C77.8457 17.9374 77.6385 17.9655 77.4313 18.0218L77.2537 18.078C77.0465 18.1342 76.8393 18.1905 76.6321 18.2748L76.4841 18.331C76.2473 18.4154 76.0105 18.4997 75.7737 18.5841H75.7441C75.0042 18.8652 74.2938 19.2026 73.613 19.5962H67.3972V24.685C65.7989 26.4282 64.3189 28.3118 62.9573 30.0831L62.8981 30.1393C58.9023 35.3125 55.4392 39.7827 50.2297 39.7827C45.9675 39.7827 42.8892 36.8588 42.8892 32.8102C42.8892 28.9585 46.1747 25.8377 50.2297 25.8377C53.2489 25.8377 55.7944 27.2716 58.8135 30.6173C58.8135 30.6173 60.4414 28.8179 60.7078 28.4524C61.7142 27.1591 64.4373 24.0103 64.4373 24.0103C60.1158 19.5962 55.4688 17.4595 50.2002 17.4595C41.2908 17.4595 34.0391 24.3476 34.0391 32.8102C34.0391 41.554 40.9948 48.161 50.2297 48.161C55.528 48.161 60.0566 46.0805 64.4965 41.6383L65.1477 40.9636C66.9532 39.0518 68.5516 36.9994 70.0907 35.0313L70.4459 34.5815C70.7419 34.1879 71.0675 33.7943 71.3635 33.4288L71.6595 33.0352C74.797 29.0709 77.7865 25.8658 81.7824 25.8658C84.0023 25.8658 85.8374 26.5125 87.0806 27.6933C88.3829 28.9304 89.0933 30.7297 89.0933 32.8102C89.0933 36.6339 85.8078 39.7827 81.7527 39.7827H81.6047C81.516 39.7827 81.4272 39.7827 81.3088 39.7827H81.22C81.1904 39.7827 81.1312 39.7827 81.1016 39.7827C81.072 39.7827 81.0424 39.7827 80.9832 39.7827C80.8944 39.7827 80.8352 39.7828 80.7464 39.7546L80.5392 39.7265C80.48 39.7265 80.4504 39.7265 80.3912 39.7265C80.332 39.7265 80.2432 39.6984 80.184 39.6984L79.9768 39.6703C79.9176 39.6703 79.8584 39.6422 79.7992 39.6422C79.74 39.6141 79.6512 39.6141 79.592 39.586L79.4144 39.5297C79.3552 39.5297 79.296 39.5016 79.2368 39.4735C79.1776 39.4454 79.0888 39.4173 79.0296 39.3891L78.8816 39.3329C78.8224 39.3048 78.7632 39.3048 78.704 39.2767C78.6152 39.2486 78.5561 39.2205 78.4673 39.1642L78.3489 39.108C78.2897 39.0799 78.2305 39.0518 78.1713 39.0237C78.0825 38.9955 78.0233 38.9393 77.9345 38.9112L77.8161 38.855C77.7569 38.8268 77.6977 38.7987 77.6089 38.7425C77.5201 38.6863 77.4313 38.63 77.3129 38.5738L77.2833 38.5457C77.2241 38.4895 77.1353 38.4614 77.0761 38.4051C76.9873 38.3489 76.8689 38.2646 76.7801 38.1802C76.6913 38.124 76.6321 38.0677 76.5433 38.0115C76.4545 37.9272 76.3361 37.8709 76.2473 37.7866L76.2177 37.7585C76.1585 37.7023 76.0697 37.646 76.0105 37.5898C75.9217 37.5054 75.8033 37.4211 75.7145 37.3368C75.6258 37.2524 75.5369 37.1962 75.4777 37.1118C75.3889 37.0275 75.2705 36.915 75.1818 36.8307C75.093 36.7463 75.0338 36.662 74.945 36.6058C74.8266 36.4933 74.7378 36.409 74.6194 36.2965C74.5306 36.2122 74.4714 36.1278 74.3826 36.0435C74.2642 35.931 74.1754 35.8185 74.057 35.7061C73.9682 35.6217 73.909 35.5374 73.8202 35.4531C73.7018 35.3406 73.5834 35.2 73.4946 35.0876C73.4058 35.0032 73.3466 34.9189 73.2578 34.8064C73.1394 34.6658 73.021 34.5253 72.9026 34.3847L72.873 34.3566C72.725 34.1879 72.725 34.1598 72.6362 34.0754C72.6362 34.0754 71.3339 35.7061 71.1859 35.9029C70.0907 37.3086 68.818 38.7144 67.5452 40.2045L67.0124 40.7949C67.0716 40.8511 66.8644 40.6824 66.9532 40.7949L67.0124 40.8792C67.1308 41.0198 67.2788 41.1604 67.3972 41.301V55.6396H76.6913V47.5425H76.7209C76.8393 47.5706 76.9577 47.5987 77.1057 47.6549C77.1649 47.6831 77.2241 47.6831 77.2833 47.7112C77.4017 47.7393 77.5201 47.7674 77.6681 47.7955L77.8457 47.8236C77.9641 47.8518 78.0825 47.8799 78.2009 47.908L78.4081 47.9361C78.5265 47.9642 78.6152 47.9642 78.7336 47.9923H78.7928C78.852 47.9923 78.9112 48.0204 78.9704 48.0204C79.0592 48.0204 79.148 48.0486 79.2368 48.0486H79.3256C79.4144 48.0486 79.4736 48.0767 79.5624 48.0767C79.6216 48.0767 79.7104 48.0767 79.7696 48.1048H79.888C79.9768 48.1048 80.0656 48.1329 80.1544 48.1329C80.2136 48.1329 80.2432 48.1329 80.3024 48.1329H80.3616C80.7168 48.161 81.0424 48.161 81.3384 48.161C81.516 48.161 81.7232 48.161 81.8711 48.161C90.7509 48.1329 97.973 41.2447 97.973 32.8102C97.8842 28.4805 96.2563 24.5726 93.2964 21.7611Z" fill="black"/>
</svg>
