<svg width="58" height="29" viewBox="0 0 58 29" fill="none" xmlns="http://www.w3.org/2000/svg">
<path d="M52.946 3.95353C50.3437 1.37623 46.8656 0 42.812 0H42.7869C42.5367 0 42.2865 0 42.0113 0.0250223C41.9862 0.0250223 41.9362 0.0250223 41.9112 0.0250223H41.8611C41.6609 0.0500447 41.4357 0.0500447 41.2356 0.075067C41.1855 0.075067 41.1355 0.075067 41.1105 0.100089H41.0354C40.8602 0.125112 40.66 0.150134 40.4849 0.175156L40.2847 0.200179C40.1096 0.225201 39.9344 0.275246 39.7592 0.300268L39.5591 0.350313C39.3839 0.400357 39.2088 0.450402 39.0336 0.500447L38.8835 0.550492C38.6833 0.600536 38.5081 0.675603 38.333 0.725648L38.2079 0.775693C38.0077 0.85076 37.8075 0.925827 37.5823 1.00089H37.5573C32.6779 3.00268 29.2999 7.58177 26.3222 11.6104L26.2722 11.6604C22.7691 16.4397 19.7163 20.5433 15.1623 20.5433C11.434 20.5934 8.73154 17.891 8.73154 14.1877C8.73154 10.6345 11.6091 7.75693 15.1623 7.75693C17.7896 7.75693 20.0416 9.08311 22.694 12.1609C22.694 12.1609 24.1203 10.4844 24.3705 10.1591C25.2463 8.958 27.6484 6.05541 27.6484 6.05541C23.845 1.97677 19.7664 0 15.1623 0C7.33029 0 0.974609 6.35567 0.974609 14.1877C0.974609 22.2699 7.08006 28.3503 15.1623 28.3753C19.8164 28.3753 23.77 26.4736 27.6735 22.37L28.249 21.7694C29.8254 20.0179 31.2266 18.1162 32.5778 16.2895L32.9031 15.8642C33.1784 15.4888 33.4286 15.1385 33.7038 14.7882L33.9541 14.4379C36.7065 10.7846 39.3088 7.80697 42.837 7.80697C44.7637 7.80697 46.3902 8.38248 47.4911 9.50849C48.6172 10.6345 49.2427 12.311 49.2427 14.2377C49.2427 17.7909 46.3651 20.6685 42.812 20.6685H42.6869C42.6118 20.6685 42.5117 20.6685 42.4366 20.6685H42.3616C42.3365 20.6685 42.2865 20.6685 42.2615 20.6685C42.2365 20.6685 42.1864 20.6685 42.1614 20.6685C42.0863 20.6685 42.0363 20.6685 41.9612 20.6434L41.761 20.6184C41.711 20.6184 41.6609 20.6184 41.6359 20.5934C41.5609 20.5934 41.5108 20.5684 41.4608 20.5684L41.2856 20.5433C41.2356 20.5433 41.1855 20.5183 41.1355 20.5183C41.0854 20.4933 41.0104 20.4933 40.9603 20.4683L40.8102 20.4182C40.7601 20.3932 40.7101 20.3932 40.66 20.3682C40.585 20.3432 40.5349 20.3181 40.4599 20.2931L40.3097 20.2431C40.2597 20.2181 40.2096 20.2181 40.1596 20.193C40.0845 20.168 40.0095 20.143 39.9594 20.0929L39.8593 20.0429C39.8093 20.0179 39.7592 19.9928 39.6842 19.9678C39.6091 19.9428 39.534 19.8928 39.484 19.8427L39.3839 19.7927C39.3339 19.7676 39.2588 19.7176 39.2088 19.6926C39.1337 19.6425 39.0586 19.5925 38.9585 19.5174L38.9335 19.4924C38.8584 19.4424 38.8084 19.4173 38.7333 19.3673C38.6583 19.3172 38.5582 19.2422 38.4581 19.1671C38.383 19.1171 38.3079 19.067 38.2579 19.017C38.1828 18.9419 38.0827 18.8668 38.0077 18.8168L37.9827 18.7918C37.9076 18.7417 37.8575 18.6917 37.7825 18.6166C37.7074 18.5416 37.6073 18.4665 37.5323 18.3664C37.4572 18.2913 37.3821 18.2413 37.3071 18.1662C37.207 18.0912 37.1319 17.9911 37.0318 17.891C36.9567 17.8159 36.8817 17.7408 36.8066 17.6658C36.7065 17.5657 36.6315 17.4656 36.5314 17.3655C36.4563 17.2904 36.3812 17.2154 36.3312 17.1403C36.2311 17.0402 36.131 16.9401 36.0559 16.815C35.9809 16.7399 35.9058 16.6649 35.8558 16.5648C35.7557 16.4397 35.6556 16.3396 35.5555 16.2145C35.4804 16.1394 35.4304 16.0393 35.3553 15.9643C35.2552 15.8391 35.1551 15.714 35.055 15.5889L35.03 15.5639C34.9049 15.4138 34.7548 15.2136 34.6297 15.0634C34.6297 15.0634 33.4786 16.5898 33.3285 16.79C32.3526 18.0912 31.2516 19.3923 30.1507 20.7435L29.7003 21.294C29.7503 21.3691 29.8004 21.4191 29.8754 21.5192L29.9255 21.5943C32.6779 24.8222 35.3303 26.7489 38.2579 27.6997L38.4331 27.7498C38.5331 27.7748 38.6583 27.8248 38.7584 27.8499C38.8084 27.8749 38.8584 27.8749 38.9085 27.8999C39.0086 27.9249 39.1337 27.95 39.2338 27.975L39.3839 28C39.484 28.025 39.5841 28.05 39.6842 28.0751L39.8593 28.1001C39.9594 28.1251 40.0595 28.1251 40.1596 28.1501H40.2096C40.2597 28.1501 40.3097 28.1752 40.3598 28.1752C40.4348 28.1752 40.5099 28.2002 40.61 28.2002H40.6851C40.7601 28.2002 40.8102 28.2252 40.8853 28.2252C40.9603 28.2252 41.0104 28.2252 41.0854 28.2502H41.1855C41.2606 28.2502 41.3357 28.2752 41.4107 28.2752C41.4608 28.2752 41.4858 28.2752 41.5358 28.2752H41.5859C41.8861 28.3003 42.1864 28.3003 42.4366 28.3003C42.6118 28.3003 42.7619 28.3003 42.9121 28.3003C50.694 28.2752 57.0247 21.8945 57.0247 14.1126C56.9746 10.1841 55.5483 6.55585 52.946 3.95353Z" fill="black"/>
</svg>
